<svg width="33" height="32" viewBox="0 0 33 32" fill="none" xmlns="http://www.w3.org/2000/svg">
<path d="M11.1676 21.1218H20.7559C26.6801 21.1218 27.5811 17.4001 28.6737 11.9721C28.989 10.4065 29.1466 9.6237 28.7676 9.10217C28.3886 8.58063 27.6621 8.58063 26.2092 8.58063H8.52734" stroke="white" stroke-width="1.98018" stroke-linecap="round"/>
<path d="M11.1689 21.1207L7.70848 4.63887C7.41465 3.46351 6.35859 2.63898 5.14707 2.63898H3.9082" stroke="white" stroke-width="1.98018" stroke-linecap="round"/>
<path d="M12.3293 21.1201H11.7862C9.98637 21.1201 8.52734 22.64 8.52734 24.5147C8.52734 24.8272 8.77051 25.0805 9.07048 25.0805H23.7087" stroke="white" stroke-width="1.98018" stroke-linecap="round" stroke-linejoin="round"/>
<path d="M14.4694 29.0393C15.5631 29.0393 16.4496 28.1527 16.4496 27.0591C16.4496 25.9655 15.5631 25.0789 14.4694 25.0789C13.3758 25.0789 12.4893 25.9655 12.4893 27.0591C12.4893 28.1527 13.3758 29.0393 14.4694 29.0393Z" stroke="white" stroke-width="1.98018"/>
<path d="M23.7107 29.0393C24.8043 29.0393 25.6908 28.1527 25.6908 27.0591C25.6908 25.9655 24.8043 25.0789 23.7107 25.0789C22.617 25.0789 21.7305 25.9655 21.7305 27.0591C21.7305 28.1527 22.617 29.0393 23.7107 29.0393Z" stroke="white" stroke-width="1.98018"/>
</svg>
