<svg width="33" height="32" viewBox="0 0 33 32" fill="none" xmlns="http://www.w3.org/2000/svg">
<path d="M16.4688 29.0414C23.7596 29.0414 29.67 23.131 29.67 15.8402C29.67 8.54936 23.7596 2.63898 16.4688 2.63898C9.17797 2.63898 3.26758 8.54936 3.26758 15.8402C3.26758 23.131 9.17797 29.0414 16.4688 29.0414Z" stroke="white" stroke-width="1.98018"/>
<path d="M10.5283 22.4449C13.6064 19.2209 19.2982 19.0691 22.4094 22.4449M19.7627 12.544C19.7627 14.3666 18.283 15.8443 16.4576 15.8443C14.6324 15.8443 13.1527 14.3666 13.1527 12.544C13.1527 10.7213 14.6324 9.24365 16.4576 9.24365C18.283 9.24365 19.7627 10.7213 19.7627 12.544Z" stroke="white" stroke-width="1.98018" stroke-linecap="round"/>
</svg>
